<svg width="72" height="468" xmlns="http://www.w3.org/2000/svg"><g fill="none"><path d="M29.46 426.663c0-8.273-.317-13.51-.953-15.706-.637-2.194-2.104-3.294-4.394-3.294-2.8 0-4.423.78-4.87 2.34-.443 1.56-.666 7.144-.666 16.757 0 9.863.333 15.593 1.003 17.183.667 1.59 3.007 2.387 7.017 2.387v20.05c-12.54 0-20.017-1.973-22.437-5.92-2.163-3.563-3.247-14.797-3.247-33.7 0-17.06 1.194-27.767 3.58-32.127 2.387-4.36 8.13-6.54 17.234-6.54 10.82 0 17.756 2.927 20.813 8.784 2.353 4.516 3.533 14.48 3.533 29.883 0 8.59.477 14.127 1.43 16.61.764 1.973 2.387 2.96 4.87 2.96v-57.283h17.664v78.286H49.033c-7.13 0-12.173-3.293-15.133-9.88-2.96-6.586-4.44-16.85-4.44-30.79zm-1.337-86.403v-8.307c0-9.483-.19-15.003-.573-16.563-.38-1.56-1.783-2.34-4.2-2.34-2.42 0-3.82.75-4.2 2.243-.383 1.497-.573 7.05-.573 16.66 0 9.357.316 14.83.953 16.424.637 1.59 2.863 2.386 6.683 2.386v19.57h-7.636c-7.704 0-12.73-3.246-15.087-9.736-1.717-4.774-2.577-14.29-2.577-28.547 0-17.377 1.434-28.323 4.297-32.843 2.42-3.817 8.21-5.727 17.377-5.727 3.69 0 6.62.62 8.783 1.86 2.163 1.243 3.723 2.85 4.677 4.823.636-2.8 1.943-4.773 3.916-5.92 1.97-1.146 4.93-1.72 8.877-1.72 9.803 0 15.96 2.134 18.473 6.397 2.517 4.267 3.774 15.31 3.774 33.13 0 9.737-.287 16.74-.86 21.003-.827 6.047-2.42 10.377-4.774 12.984-2.61 2.866-6.62 4.296-12.03 4.296H44.83v-19.57c4.33 0 6.843-.763 7.543-2.293.7-1.527 1.05-7 1.05-16.42 0-10.12-.19-15.977-.573-17.567-.38-1.59-1.847-2.386-4.39-2.386-2.483 0-3.947.843-4.393 2.53-.447 1.686-.667 7.493-.667 17.423v8.21H28.123z" fill="#EF7F1A"/><path d="M1.87 275.437V254.43h50.503v-47.64h17.664v68.647H1.87zm0-110.274v-36.086L70.037 95.28v24.537l-11.457 6.49v41.626l11.457 6.494v24.536l-68.167-33.8zm15.37-19.666v3.246l23.677 11.36v-25.87L17.24 145.497zm25.587-81.34V27.78c0-1.973.396-3.483 1.193-4.533.797-1.05 2.273-1.577 4.44-1.577 3.437 0 5.153 2.037 5.153 6.11v36.377H42.827zM1.677 85.16h68.36V21.67c0-7.51-1.434-12.89-4.297-16.133C62.86 2.29 57.99.667 51.1.667c-7.957 0-13.35 3.15-16.15 9.45-.89-1.97-2.547-3.627-4.98-4.964-2.42-1.336-5.41-2.003-8.977-2.003-8.096 0-13.57 2.227-16.453 6.683-1.907 2.99-2.863 7.764-2.863 14.32V85.16zM18.29 64.157V26.92c0-1.717.35-3.023 1.05-3.913.7-.89 1.877-1.337 3.533-1.337 1.59 0 2.754.463 3.484 1.383.733.924 1.1 2.214 1.1 3.867v37.237H18.29z" fill="#2B2A29"/></g></svg>