<svg width="311" height="158" xmlns="http://www.w3.org/2000/svg"><path d="M20.095 46.745c-3.622 0-7.23-.59-10.824-1.768-3.593-1.18-6.684-2.86-9.271-5.046l3.795-6.037c2.702 1.955 5.376 3.436 8.02 4.442a22.626 22.626 0 0 0 8.107 1.509c2.818 0 5.046-.546 6.684-1.639 1.64-1.092 2.458-2.644 2.458-4.657 0-1.897-.92-3.277-2.76-4.14-1.84-.862-4.714-1.81-8.624-2.846-2.817-.747-5.232-1.466-7.244-2.156-2.013-.69-3.651-1.495-4.916-2.415-1.265-.92-2.185-1.983-2.76-3.19-.575-1.208-.863-2.674-.863-4.4 0-2.299.446-4.34 1.337-6.123a13.142 13.142 0 0 1 3.709-4.527c1.58-1.237 3.435-2.17 5.562-2.803C14.633.316 16.933 0 19.405 0c3.392 0 6.555.517 9.487 1.552 2.932 1.035 5.548 2.53 7.848 4.485l-4.053 5.692c-4.198-3.335-8.653-5.002-13.368-5.002-2.415 0-4.442.503-6.08 1.51-1.64 1.006-2.458 2.601-2.458 4.786 0 .92.172 1.696.517 2.329.345.632.906 1.178 1.682 1.638.776.46 1.782.877 3.018 1.25 1.237.374 2.775.791 4.614 1.251 3.048.748 5.678 1.495 7.892 2.243 2.213.747 4.039 1.624 5.476 2.63 1.438 1.006 2.501 2.185 3.191 3.536s1.035 2.976 1.035 4.873c0 4.312-1.624 7.719-4.872 10.22-3.249 2.501-7.662 3.752-13.239 3.752zm38.379 0c-2.185 0-4.212-.36-6.08-1.079-1.87-.718-3.479-1.71-4.83-2.975a13.874 13.874 0 0 1-3.191-4.485c-.776-1.725-1.164-3.593-1.164-5.606 0-2.127.46-4.053 1.38-5.778.92-1.725 2.227-3.22 3.924-4.485 1.696-1.265 3.708-2.242 6.037-2.932 2.328-.69 4.901-1.035 7.719-1.035 2.127 0 4.226.187 6.295.56 2.07.374 3.939.877 5.606 1.51v-3.105c0-3.335-.948-5.936-2.846-7.805-1.897-1.869-4.628-2.803-8.193-2.803-2.415 0-4.787.446-7.115 1.337-2.329.891-4.73 2.17-7.202 3.838l-2.932-6.037C51.69 1.955 57.726 0 63.993 0c6.21 0 11.04 1.581 14.49 4.743 3.45 3.163 5.174 7.705 5.174 13.627v16.3c0 2.013.834 3.048 2.501 3.105v8.107c-.92.173-1.71.288-2.371.345a22.4 22.4 0 0 1-1.94.086c-1.84 0-3.264-.46-4.27-1.38-1.006-.92-1.624-2.098-1.854-3.536l-.259-2.846c-2.012 2.645-4.5 4.672-7.46 6.08-2.961 1.41-6.138 2.114-9.53 2.114zm2.587-6.986c2.3 0 4.47-.417 6.512-1.25 2.04-.835 3.636-1.999 4.786-3.494 1.208-1.035 1.811-2.127 1.811-3.277v-5.95a28.677 28.677 0 0 0-5.131-1.467 28.316 28.316 0 0 0-5.304-.518c-3.393 0-6.167.734-8.323 2.2-2.156 1.466-3.234 3.406-3.234 5.821 0 2.243.834 4.126 2.501 5.65 1.667 1.523 3.795 2.285 6.382 2.285zM95.56 56.49c.862.173 1.71.316 2.544.431.834.115 1.51.173 2.027.173.747 0 1.394-.158 1.94-.474.547-.317 1.107-.877 1.682-1.682.575-.805 1.164-1.94 1.768-3.407.604-1.466 1.308-3.349 2.113-5.649L89.091.776h9.745l13.972 36.74 12.42-36.74h8.969l-20.44 55.542c-.92 2.587-2.516 4.758-4.787 6.511-2.271 1.754-5.19 2.63-8.754 2.63-.69 0-1.408-.043-2.156-.129-.747-.086-1.581-.273-2.501-.56v-8.28zM69.107 156.768h-23.41v-36.47c0-3.203-.718-5.523-2.156-6.96-1.437-1.438-3.224-2.156-5.36-2.156-.739 0-1.622.225-2.648.677-1.027.452-2.054 1.068-3.08 1.848-1.027.78-1.992 1.746-2.896 2.896a16.017 16.017 0 0 0-2.217 3.819v36.346H3.93v-89.94h23.41v34.743c2.3-3.532 5.297-6.221 8.994-8.07 3.696-1.848 7.844-2.772 12.443-2.772 4.518 0 8.132.78 10.843 2.341 2.71 1.56 4.764 3.512 6.16 5.852a20.706 20.706 0 0 1 2.71 7.578c.411 2.71.617 5.256.617 7.638v42.63zM112.352 158c-5.668 0-10.719-.883-15.154-2.649-4.436-1.766-8.153-4.168-11.15-7.208a31.036 31.036 0 0 1-6.839-10.472c-1.56-3.943-2.34-8.09-2.34-12.444 0-4.682.76-9.117 2.279-13.306 1.52-4.19 3.778-7.844 6.776-10.966 2.998-3.12 6.694-5.605 11.089-7.454 4.394-1.848 9.507-2.772 15.339-2.772 5.75 0 10.842.924 15.278 2.772 4.435 1.849 8.152 4.313 11.15 7.393 2.998 3.08 5.257 6.653 6.776 10.719 1.52 4.066 2.28 8.316 2.28 12.752 0 1.232-.062 2.484-.185 3.757a50.3 50.3 0 0 1-.432 3.389h-45.463c.247 3.45 1.52 5.934 3.82 7.454 2.3 1.52 4.805 2.279 7.515 2.279 2.547 0 4.949-.575 7.208-1.725 2.259-1.15 3.758-2.752 4.497-4.805l19.836 5.667c-2.628 5.175-6.674 9.405-12.136 12.69-5.462 3.286-12.177 4.929-20.144 4.929zm10.35-40.535c-.411-3.121-1.561-5.585-3.45-7.392-1.89-1.807-4.313-2.71-7.27-2.71s-5.38.903-7.269 2.71c-1.889 1.807-3.039 4.27-3.45 7.392h21.438zm32.28-50.638h23.409v64.19c0 4.93 2.012 7.393 6.037 7.393.985 0 2.053-.164 3.203-.493 1.15-.328 2.218-.78 3.204-1.355l2.956 17.249c-2.792 1.314-5.934 2.34-9.425 3.08-3.49.74-6.797 1.109-9.918 1.109-6.242 0-11.047-1.602-14.415-4.805-3.368-3.203-5.052-7.844-5.052-13.922V66.827zm43.738 0h23.409v64.19c0 4.93 2.012 7.393 6.037 7.393.986 0 2.054-.164 3.203-.493 1.15-.328 2.218-.78 3.204-1.355l2.957 17.249c-2.793 1.314-5.935 2.34-9.426 3.08-3.49.74-6.796 1.109-9.918 1.109-6.242 0-11.047-1.602-14.415-4.805-3.367-3.203-5.051-7.844-5.051-13.922V66.827zM274.86 158c-5.831 0-10.944-.924-15.339-2.772-4.394-1.848-8.09-4.312-11.088-7.393-2.998-3.08-5.257-6.653-6.777-10.719-1.52-4.065-2.28-8.316-2.28-12.751 0-4.436.76-8.686 2.28-12.752 1.52-4.066 3.779-7.639 6.777-10.72 2.998-3.08 6.694-5.543 11.088-7.392 4.395-1.848 9.508-2.772 15.34-2.772 5.749 0 10.842.924 15.277 2.772 4.435 1.849 8.152 4.313 11.15 7.393 2.998 3.08 5.257 6.653 6.776 10.719 1.52 4.066 2.28 8.316 2.28 12.752 0 4.435-.76 8.686-2.28 12.751-1.52 4.066-3.778 7.64-6.776 10.72-2.998 3.08-6.715 5.544-11.15 7.392-4.435 1.848-9.528 2.772-15.278 2.772zm-11.458-33.635c0 4.353 1.068 7.762 3.204 10.226 2.135 2.464 4.887 3.696 8.254 3.696 3.368 0 6.12-1.232 8.255-3.696 2.136-2.464 3.204-5.873 3.204-10.226 0-4.354-1.068-7.762-3.204-10.227-2.135-2.464-4.887-3.696-8.255-3.696-3.367 0-6.119 1.232-8.254 3.696-2.136 2.465-3.204 5.873-3.204 10.227z" fill="#D9D9D9" fill-rule="evenodd" opacity=".1"/></svg>