<?xml version="1.0" encoding="UTF-8" standalone="no"?>
<svg width="72px" height="468px" viewBox="0 0 72 468" version="1.1" xmlns="http://www.w3.org/2000/svg" xmlns:xlink="http://www.w3.org/1999/xlink">
    <!-- Generator: Sketch 46.2 (44496) - http://www.bohemiancoding.com/sketch -->
    <title>23lab</title>
    <desc>Created with Sketch.</desc>
    <defs></defs>
    <g id="Page-1" stroke="none" stroke-width="1" fill="none" fill-rule="evenodd">
        <g id="23lab-3" transform="translate(-1442.000000, -116.000000)" fill-rule="nonzero">
            <g id="1st">
                <g id="23lab" transform="translate(1478.000000, 350.000000) rotate(-90.000000) translate(-1478.000000, -350.000000) translate(1228.000000, 300.000000)">
                    <g id="_1683546248352" transform="translate(16.666667, 14.913333)">
                        <path d="M40.67,28.5466667 C48.9433333,28.5466667 54.18,28.23 56.3766667,27.5933333 C58.57,26.9566667 59.67,25.49 59.67,23.2 C59.67,20.4 58.89,18.7766667 57.33,18.33 C55.77,17.8866667 50.1866667,17.6633333 40.5733333,17.6633333 C30.71,17.6633333 24.98,17.9966667 23.39,18.6666667 C21.8,19.3333333 21.0033333,21.6733333 21.0033333,25.6833333 L0.953333333,25.6833333 C0.953333333,13.1433333 2.92666667,5.66666667 6.87333333,3.24666667 C10.4366667,1.08333333 21.67,0 40.5733333,0 C57.6333333,0 68.34,1.19333333 72.7,3.58 C77.06,5.96666667 79.24,11.71 79.24,20.8133333 C79.24,31.6333333 76.3133333,38.57 70.4566667,41.6266667 C65.94,43.98 55.9766667,45.16 40.5733333,45.16 C31.9833333,45.16 26.4466667,45.6366667 23.9633333,46.59 C21.99,47.3533333 21.0033333,48.9766667 21.0033333,51.46 L78.2866667,51.46 L78.2866667,69.1233333 L0,69.1233333 L0,48.12 C0,40.99 3.29333333,35.9466667 9.88,32.9866667 C16.4666667,30.0266667 26.73,28.5466667 40.67,28.5466667 Z M127.073333,27.21 L135.38,27.21 C144.863333,27.21 150.383333,27.02 151.943333,26.6366667 C153.503333,26.2566667 154.283333,24.8533333 154.283333,22.4366667 C154.283333,20.0166667 153.533333,18.6166667 152.04,18.2366667 C150.543333,17.8533333 144.99,17.6633333 135.38,17.6633333 C126.023333,17.6633333 120.55,17.98 118.956667,18.6166667 C117.366667,19.2533333 116.57,21.48 116.57,25.3 L97,25.3 L97,17.6633333 C97,9.96 100.246667,4.93333333 106.736667,2.57666667 C111.51,0.86 121.026667,0 135.283333,0 C152.66,0 163.606667,1.43333333 168.126667,4.29666667 C171.943333,6.71666667 173.853333,12.5066667 173.853333,21.6733333 C173.853333,25.3633333 173.233333,28.2933333 171.993333,30.4566667 C170.75,32.62 169.143333,34.18 167.17,35.1333333 C169.97,35.77 171.943333,37.0766667 173.09,39.05 C174.236667,41.02 174.81,43.98 174.81,47.9266667 C174.81,57.73 172.676667,63.8866667 168.413333,66.4 C164.146667,68.9166667 153.103333,70.1733333 135.283333,70.1733333 C125.546667,70.1733333 118.543333,69.8866667 114.28,69.3133333 C108.233333,68.4866667 103.903333,66.8933333 101.296667,64.54 C98.43,61.93 97,57.92 97,52.51 L97,43.9166667 L116.57,43.9166667 C116.57,48.2466667 117.333333,50.76 118.863333,51.46 C120.39,52.16 125.863333,52.51 135.283333,52.51 C145.403333,52.51 151.26,52.32 152.85,51.9366667 C154.44,51.5566667 155.236667,50.09 155.236667,47.5466667 C155.236667,45.0633333 154.393333,43.6 152.706667,43.1533333 C151.02,42.7066667 145.213333,42.4866667 135.283333,42.4866667 L127.073333,42.4866667 L127.073333,27.21 Z" id="Shape" fill="#EF7F1A"></path>
                        <path d="M191.896667,0.956666667 L212.903333,0.956666667 L212.903333,51.46 L260.543333,51.46 L260.543333,69.1233333 L191.896667,69.1233333 L191.896667,0.956666667 Z M302.17,0.956666667 L338.256667,0.956666667 L372.053333,69.1233333 L347.516667,69.1233333 L341.026667,57.6666667 L299.4,57.6666667 L292.906667,69.1233333 L268.37,69.1233333 L302.17,0.956666667 Z M321.836667,16.3266667 L318.59,16.3266667 L307.23,40.0033333 L333.1,40.0033333 L321.836667,16.3266667 Z M403.176667,41.9133333 L439.553333,41.9133333 C441.526667,41.9133333 443.036667,42.31 444.086667,43.1066667 C445.136667,43.9033333 445.663333,45.38 445.663333,47.5466667 C445.663333,50.9833333 443.626667,52.7 439.553333,52.7 L403.176667,52.7 L403.176667,41.9133333 Z M382.173333,0.763333333 L382.173333,69.1233333 L445.663333,69.1233333 C453.173333,69.1233333 458.553333,67.69 461.796667,64.8266667 C465.043333,61.9466667 466.666667,57.0766667 466.666667,50.1866667 C466.666667,42.23 463.516667,36.8366667 457.216667,34.0366667 C459.186667,33.1466667 460.843333,31.49 462.18,29.0566667 C463.516667,26.6366667 464.183333,23.6466667 464.183333,20.08 C464.183333,11.9833333 461.956667,6.51 457.5,3.62666667 C454.51,1.72 449.736667,0.763333333 443.18,0.763333333 L382.173333,0.763333333 Z M403.176667,17.3766667 L440.413333,17.3766667 C442.13,17.3766667 443.436667,17.7266667 444.326667,18.4266667 C445.216667,19.1266667 445.663333,20.3033333 445.663333,21.96 C445.663333,23.55 445.2,24.7133333 444.28,25.4433333 C443.356667,26.1766667 442.066667,26.5433333 440.413333,26.5433333 L403.176667,26.5433333 L403.176667,17.3766667 Z" id="Shape" fill="#2B2A29"></path>
                    </g>
                </g>
            </g>
        </g>
    </g>
</svg>