<?xml version="1.0" encoding="UTF-8" standalone="no"?>
<svg width="311px" height="158px" viewBox="0 0 311 158" version="1.1" xmlns="http://www.w3.org/2000/svg" xmlns:xlink="http://www.w3.org/1999/xlink">
    <!-- Generator: Sketch 46.2 (44496) - http://www.bohemiancoding.com/sketch -->
    <title>say hello</title>
    <desc>Created with Sketch.</desc>
    <defs></defs>
    <g id="Page-1" stroke="none" stroke-width="1" fill="none" fill-rule="evenodd" opacity="0.100000001">
        <g id="23lab-3" transform="translate(-780.000000, -4269.000000)" fill="#D9D9D9">
            <g id="5th" transform="translate(0.000000, 3919.000000)">
                <path d="M800.094978,396.744541 C796.472689,396.744541 792.864829,396.15521 789.271288,394.976528 C785.677748,393.797847 782.587349,392.116095 780,389.931223 L783.79476,383.894105 C786.497102,385.848991 789.170656,387.329507 791.815502,388.335699 C794.460348,389.34189 797.16265,389.844978 799.922489,389.844978 C802.739825,389.844978 804.967787,389.298768 806.606441,388.206332 C808.245096,387.113896 809.06441,385.561509 809.06441,383.549127 C809.06441,381.651737 808.144478,380.271838 806.304585,379.409389 C804.464692,378.546939 801.589903,377.598258 797.680131,376.563319 C794.862795,375.815862 792.447972,375.097165 790.43559,374.407205 C788.423207,373.717245 786.784577,372.912304 785.519651,371.992358 C784.254724,371.072412 783.334792,370.00874 782.759825,368.80131 C782.184859,367.59388 781.89738,366.127738 781.89738,364.402838 C781.89738,362.102972 782.342972,360.061872 783.23417,358.279476 C784.125368,356.49708 785.361528,354.987815 786.942686,353.751638 C788.523843,352.51546 790.378083,351.581153 792.505459,350.94869 C794.632835,350.316227 796.932666,350 799.405022,350 C802.797324,350 805.959592,350.517462 808.891921,351.552402 C811.82425,352.587341 814.440309,354.082232 816.740175,356.037118 L812.686681,361.729258 C808.489426,358.394452 804.033502,356.727074 799.318777,356.727074 C796.903918,356.727074 794.877192,357.230162 793.238537,358.236354 C791.599883,359.242545 790.780568,360.838053 790.780568,363.022926 C790.780568,363.942872 790.953055,364.719065 791.298035,365.351528 C791.643015,365.983992 792.203599,366.530201 792.979803,366.990175 C793.756008,367.450148 794.762185,367.866992 795.998362,368.240721 C797.23454,368.614449 798.772553,369.031293 800.612445,369.491266 C803.659768,370.238723 806.2902,370.986168 808.503821,371.733624 C810.717442,372.481081 812.542933,373.357892 813.980349,374.364083 C815.417766,375.370274 816.481438,376.548938 817.171397,377.900109 C817.861357,379.25128 818.206332,380.875536 818.206332,382.772926 C818.206332,387.085174 816.582076,390.4918 813.333515,392.992904 C810.084955,395.494008 805.672153,396.744541 800.094978,396.744541 Z M838.473799,396.744541 C836.288926,396.744541 834.2622,396.385193 832.393559,395.666485 C830.524918,394.947777 828.915036,393.955974 827.563865,392.691048 C826.212693,391.426122 825.149021,389.931231 824.372817,388.206332 C823.596612,386.481432 823.208515,384.612819 823.208515,382.600437 C823.208515,380.473061 823.668482,378.546952 824.588428,376.822052 C825.508374,375.097153 826.816403,373.602263 828.512555,372.337336 C830.208706,371.07241 832.221058,370.094982 834.549672,369.405022 C836.878287,368.715062 839.451223,368.370087 842.268559,368.370087 C844.395935,368.370087 846.494531,368.556949 848.56441,368.930677 C850.63429,369.304405 852.502903,369.807493 854.170306,370.439956 L854.170306,367.335153 C854.170306,364.000347 853.221625,361.398663 851.324236,359.530022 C849.426846,357.661381 846.695797,356.727074 843.131004,356.727074 C840.716145,356.727074 838.344444,357.172667 836.01583,358.063865 C833.687215,358.955063 831.286766,360.234344 828.81441,361.901747 L825.882096,355.864629 C831.689258,351.954857 837.726315,350 843.99345,350 C850.203088,350 855.032734,351.581134 858.482533,354.74345 C861.932332,357.905765 863.657205,362.447933 863.657205,368.370087 L863.657205,384.670306 C863.657205,386.682688 864.490894,387.717613 866.158297,387.775109 L866.158297,395.882096 C865.238351,396.054586 864.447784,396.169578 863.786572,396.227074 C863.125361,396.284571 862.478533,396.313319 861.84607,396.313319 C860.006177,396.313319 858.583156,395.853352 857.576965,394.933406 C856.570774,394.01346 855.952694,392.834796 855.722707,391.39738 L855.463974,388.55131 C853.451591,391.196156 850.964898,393.222882 848.003821,394.63155 C845.042744,396.040218 841.866101,396.744541 838.473799,396.744541 Z M841.061135,389.758734 C843.361001,389.758734 845.531467,389.341889 847.572598,388.508188 C849.613729,387.674486 851.209237,386.510197 852.35917,385.015284 C853.5666,383.980344 854.170306,382.887924 854.170306,381.737991 L854.170306,375.787118 C852.5604,375.154655 850.8499,374.665941 849.038755,374.320961 C847.227611,373.975981 845.459616,373.803493 843.734716,373.803493 C840.342414,373.803493 837.568242,374.536565 835.412118,376.002729 C833.255994,377.468894 832.177948,379.409377 832.177948,381.824236 C832.177948,384.066605 833.011636,385.949592 834.679039,387.473253 C836.346442,388.996914 838.473786,389.758734 841.061135,389.758734 Z M875.558952,406.490175 C876.421402,406.662665 877.269465,406.806404 878.103166,406.921397 C878.936867,407.036391 879.612443,407.093886 880.129913,407.093886 C880.877369,407.093886 881.524197,406.935773 882.070415,406.619541 C882.616633,406.30331 883.177217,405.742726 883.752183,404.937773 C884.32715,404.13282 884.916482,402.997278 885.520197,401.531114 C886.123911,400.064949 886.828235,398.181962 887.633188,395.882096 L869.090611,350.776201 L878.836245,350.776201 L892.80786,387.516376 L905.227074,350.776201 L914.196507,350.776201 L893.75655,406.317686 C892.836604,408.905035 891.241096,411.075501 888.969978,412.829148 C886.698861,414.582796 883.780949,415.459607 880.216157,415.459607 C879.526197,415.459607 878.8075,415.416485 878.060044,415.33024 C877.312587,415.243995 876.478898,415.057134 875.558952,414.769651 L875.558952,406.490175 Z M849.106519,506.767935 L825.697286,506.767935 L825.697286,470.298815 C825.697286,467.09543 824.978589,464.775064 823.541173,463.337648 C822.103757,461.900232 820.31728,461.181535 818.181691,461.181535 C817.442448,461.181535 816.559477,461.407411 815.532751,461.85917 C814.506025,462.31093 813.479315,462.926956 812.452589,463.707268 C811.425863,464.487579 810.460755,465.452687 809.557236,466.60262 C808.653718,467.752553 807.914486,469.025674 807.33952,470.422021 L807.33952,506.767935 L783.930287,506.767935 L783.930287,416.827199 L807.33952,416.827199 L807.33952,451.571429 C809.639386,448.039492 812.63738,445.34951 816.333593,443.501404 C820.029806,441.653297 824.177717,440.729258 828.777449,440.729258 C833.295042,440.729258 836.909063,441.509558 839.619619,443.070181 C842.330176,444.630804 844.383597,446.581554 845.779944,448.922489 C847.176291,451.263424 848.079796,453.789132 848.490487,456.499688 C848.901177,459.210244 849.106519,461.756486 849.106519,464.13849 L849.106519,506.767935 Z M892.351996,508 C886.684469,508 881.633054,507.117029 877.197598,505.351061 C872.762143,503.585092 869.045451,501.18259 866.047411,498.143481 C863.049372,495.104372 860.770074,491.613557 859.209451,487.67093 C857.648828,483.728302 856.868528,479.580392 856.868528,475.227074 C856.868528,470.545204 857.628294,466.109815 859.147848,461.920774 C860.667402,457.731732 862.926165,454.076643 865.924205,450.955396 C868.922244,447.83415 872.618402,445.34951 877.012789,443.501404 C881.407175,441.653297 886.520193,440.729258 892.351996,440.729258 C898.101661,440.729258 903.194145,441.653297 907.629601,443.501404 C912.065056,445.34951 915.781748,447.813615 918.779788,450.893793 C921.777827,453.97397 924.03659,457.546923 925.556145,461.612757 C927.075699,465.678592 927.835465,469.929173 927.835465,474.364629 C927.835465,475.5967 927.773862,476.849287 927.650655,478.122427 C927.527448,479.395567 927.383708,480.524948 927.219432,481.510605 L881.756238,481.510605 C882.002653,484.960404 883.275773,487.445043 885.575639,488.964598 C887.875505,490.484152 890.380679,491.243918 893.091235,491.243918 C895.637515,491.243918 898.040018,490.66896 900.298815,489.519027 C902.557612,488.369094 904.056609,486.767426 904.795852,484.713974 L924.632096,490.381472 C922.003678,495.556171 917.958439,499.786218 912.496257,503.07174 C907.034075,506.357263 900.319389,508 892.351996,508 Z M902.701341,467.465066 C902.290651,464.343819 901.140735,461.879714 899.25156,460.072676 C897.362384,458.265639 894.939347,457.362133 891.982377,457.362133 C889.025406,457.362133 886.60237,458.265639 884.713194,460.072676 C882.824018,461.879714 881.674103,464.343819 881.263412,467.465066 L902.701341,467.465066 Z M934.981441,416.827199 L958.390674,416.827199 L958.390674,481.017779 C958.390674,485.946063 960.403026,488.410168 964.427792,488.410168 C965.413448,488.410168 966.481227,488.245895 967.63116,487.917342 C968.781093,487.58879 969.848872,487.137038 970.834529,486.562071 L973.791485,503.810979 C970.99879,505.125189 967.857056,506.151899 964.366188,506.891142 C960.87532,507.630384 957.569313,508 954.448066,508 C948.205573,508 943.400568,506.398332 940.032907,503.194947 C936.665246,499.991562 934.981441,495.350831 934.981441,489.272614 L934.981441,416.827199 Z M978.719744,416.827199 L1002.12898,416.827199 L1002.12898,481.017779 C1002.12898,485.946063 1004.14133,488.410168 1008.16609,488.410168 C1009.15175,488.410168 1010.21953,488.245895 1011.36946,487.917342 C1012.5194,487.58879 1013.58718,487.137038 1014.57283,486.562071 L1017.52979,503.810979 C1014.73709,505.125189 1011.59536,506.151899 1008.10449,506.891142 C1004.61362,507.630384 1001.30762,508 998.186369,508 C991.943876,508 987.138871,506.398332 983.77121,503.194947 C980.403549,499.991562 978.719744,495.350831 978.719744,489.272614 L978.719744,416.827199 Z M1054.86135,508 C1049.02955,508 1043.91653,507.075961 1039.52215,505.227854 C1035.12776,503.379747 1031.4316,500.915642 1028.43356,497.835465 C1025.43552,494.755287 1023.17676,491.182335 1021.65721,487.1165 C1020.13765,483.050666 1019.37789,478.800085 1019.37789,474.364629 C1019.37789,469.929173 1020.13765,465.678592 1021.65721,461.612757 C1023.17676,457.546923 1025.43552,453.97397 1028.43356,450.893793 C1031.4316,447.813615 1035.12776,445.34951 1039.52215,443.501404 C1043.91653,441.653297 1049.02955,440.729258 1054.86135,440.729258 C1060.61102,440.729258 1065.7035,441.653297 1070.13896,443.501404 C1074.57441,445.34951 1078.29111,447.813615 1081.28915,450.893793 C1084.28718,453.97397 1086.54595,457.546923 1088.0655,461.612757 C1089.58506,465.678592 1090.34482,469.929173 1090.34482,474.364629 C1090.34482,478.800085 1089.58506,483.050666 1088.0655,487.1165 C1086.54595,491.182335 1084.28718,494.755287 1081.28915,497.835465 C1078.29111,500.915642 1074.57441,503.379747 1070.13896,505.227854 C1065.7035,507.075961 1060.61102,508 1054.86135,508 Z M1043.40315,474.364629 C1043.40315,478.717946 1044.47093,482.126625 1046.60652,484.590767 C1048.74211,487.054909 1051.49369,488.286962 1054.86135,488.286962 C1058.22901,488.286962 1060.9806,487.054909 1063.11619,484.590767 C1065.25178,482.126625 1066.31956,478.717946 1066.31956,474.364629 C1066.31956,470.011311 1065.25178,466.602632 1063.11619,464.13849 C1060.9806,461.674348 1058.22901,460.442296 1054.86135,460.442296 C1051.49369,460.442296 1048.74211,461.674348 1046.60652,464.13849 C1044.47093,466.602632 1043.40315,470.011311 1043.40315,474.364629 Z" id="say-hello"></path>
            </g>
        </g>
    </g>
</svg>